<svg width="20" height="20" viewBox="0 0 20 20" fill="none" xmlns="http://www.w3.org/2000/svg">
<path d="M16.75 5.78329C16.75 6.23329 16.5083 6.64163 16.125 6.84996L14.675 7.63329L13.4417 8.29163L10.8833 9.67496C10.6083 9.82496 10.3083 9.89996 10 9.89996C9.69167 9.89996 9.39167 9.82496 9.11667 9.67496L3.875 6.84996C3.49167 6.64163 3.25 6.23329 3.25 5.78329C3.25 5.33329 3.49167 4.92496 3.875 4.71663L5.51667 3.83329L6.825 3.12496L9.11667 1.89163C9.66667 1.59163 10.3333 1.59163 10.8833 1.89163L16.125 4.71663C16.5083 4.92496 16.75 5.33329 16.75 5.78329Z" fill="#217B83"/>
<path d="M8.24993 10.6583L3.37494 8.22499C2.99994 8.03333 2.5666 8.05833 2.20827 8.275C1.84993 8.49166 1.6416 8.87499 1.6416 9.29166V13.9C1.6416 14.7 2.08327 15.4167 2.79993 15.775L7.67493 18.2083C7.8416 18.2917 8.02494 18.3333 8.20827 18.3333C8.42494 18.3333 8.6416 18.275 8.83327 18.15C9.1916 17.9333 9.39993 17.55 9.39993 17.1333V12.525C9.40827 11.7333 8.9666 11.0167 8.24993 10.6583Z" fill="#217B83"/>
<path d="M18.3585 9.29169V13.9C18.3585 14.6917 17.9168 15.4084 17.2001 15.7667L12.3251 18.2084C12.1585 18.2917 11.9751 18.3334 11.7918 18.3334C11.5751 18.3334 11.3585 18.275 11.1585 18.15C10.8085 17.9334 10.5918 17.55 10.5918 17.1334V12.5334C10.5918 11.7334 11.0335 11.0167 11.7501 10.6584L13.5418 9.76669L14.7918 9.14169L16.6251 8.22502C17.0001 8.03336 17.4335 8.05002 17.7918 8.27502C18.1418 8.49169 18.3585 8.87502 18.3585 9.29169Z" fill="#217B83"/>
<path d="M14.6749 7.63333L13.4416 8.29167L5.5166 3.83333L6.82493 3.125L14.4749 7.44167C14.5583 7.49167 14.6249 7.55833 14.6749 7.63333Z" fill="#217B83"/>
<path d="M14.7915 9.14172V11.0334C14.7915 11.3751 14.5082 11.6584 14.1665 11.6584C13.8248 11.6584 13.5415 11.3751 13.5415 11.0334V9.76672L14.7915 9.14172Z" fill="#217B83"/>
</svg>
